<svg width="17" height="17" viewBox="0 0 17 17" fill="none" xmlns="http://www.w3.org/2000/svg">
<path fill-rule="evenodd" clip-rule="evenodd" d="M8.15311 16.993C3.61968 16.8111 0 13.078 0 8.49991C0 3.80541 3.80541 0 8.49991 0C13.1944 0 16.9998 3.80541 16.9998 8.49991C16.9998 13.1944 13.1944 16.9998 8.49991 16.9998C8.46109 17.0001 8.42227 17.0001 8.38346 16.9998C8.30653 16.9998 8.22961 16.9973 8.15311 16.993ZM3.04552 13.8633C2.98196 13.6808 2.96033 13.4864 2.98223 13.2944C3.00412 13.1023 3.06898 12.9177 3.17199 12.7542C3.27499 12.5907 3.4135 12.4525 3.57724 12.3498C3.74097 12.2472 3.92572 12.1827 4.11778 12.1612C7.43104 11.7945 9.58917 11.8276 12.8863 12.1689C13.0786 12.1889 13.2638 12.2526 13.4278 12.355C13.5918 12.4574 13.7303 12.5959 13.8326 12.7599C13.935 12.924 13.9986 13.1092 14.0186 13.3015C14.0386 13.4938 14.0144 13.6882 13.9479 13.8697C15.361 12.44 16.1524 10.5101 16.1498 8.49991C16.1498 4.27503 12.7248 0.849991 8.49991 0.849991C4.27503 0.849991 0.849991 4.27503 0.849991 8.49991C0.849991 10.5892 1.68766 12.483 3.04552 13.8633Z" fill="#DF6B0B"/>
</svg>
