<svg width="15" height="26" viewBox="0 0 15 26" fill="none" xmlns="http://www.w3.org/2000/svg">
<path d="M13 2.51617C13.3337 2.51617 13.6537 2.38362 13.8896 2.14769C14.1255 1.91176 14.2581 1.59176 14.2581 1.2581C14.2581 0.924443 14.1255 0.60445 13.8896 0.368517C13.6537 0.132585 13.3337 4.03127e-05 13 4.03127e-05H2.9355C2.15696 4.03127e-05 1.41031 0.309313 0.859803 0.859823C0.309293 1.41033 2.01563e-05 2.15698 2.01563e-05 2.93552L2.01563e-05 23.0645C2.01563e-05 23.8431 0.309293 24.5897 0.859803 25.1402C1.41031 25.6907 2.15696 26 2.9355 26H13C13.3337 26 13.6537 25.8675 13.8896 25.6315C14.1255 25.3956 14.2581 25.0756 14.2581 24.7419C14.2581 24.4083 14.1255 24.0883 13.8896 23.8524C13.6537 23.6164 13.3337 23.4839 13 23.4839H2.9355C2.82428 23.4839 2.71761 23.4397 2.63897 23.361C2.56033 23.2824 2.51615 23.1757 2.51615 23.0645L2.51615 2.93552C2.51615 2.8243 2.56033 2.71763 2.63897 2.63899C2.71761 2.56035 2.82428 2.51617 2.9355 2.51617H13Z" fill="#222222"/>
</svg>
