<svg width="16" height="17" viewBox="0 0 16 17" fill="none" xmlns="http://www.w3.org/2000/svg">
<path d="M5.42857 0.796875C5.42857 0.355273 5.04643 0 4.57143 0C4.09643 0 3.71429 0.355273 3.71429 0.796875V2.125H2.28571C1.025 2.125 0 3.07793 0 4.25V14.875C0 16.0471 1.025 17 2.28571 17H13.7143C14.975 17 16 16.0471 16 14.875V4.25C16 3.07793 14.975 2.125 13.7143 2.125H12.2857V0.796875C12.2857 0.355273 11.9036 0 11.4286 0C10.9536 0 10.5714 0.355273 10.5714 0.796875V2.125H5.42857V0.796875ZM1.71429 6.375H14.2857V14.875C14.2857 15.1672 14.0286 15.4062 13.7143 15.4062H2.28571C1.97143 15.4062 1.71429 15.1672 1.71429 14.875V6.375Z" fill="#666666"/>
</svg>
