<svg width="16" height="17" viewBox="0 0 16 17" fill="none" xmlns="http://www.w3.org/2000/svg">
<path d="M6.02778 15.381H9.47222C9.47222 16.2714 8.69722 17 7.75 17C6.80278 17 6.02778 16.2714 6.02778 15.381ZM15.5 13.7619V14.5714H0V13.7619L1.72222 12.1429V7.28571C1.72222 4.77619 3.44444 2.59048 6.02778 1.8619V1.61905C6.02778 0.728571 6.80278 0 7.75 0C8.69722 0 9.47222 0.728571 9.47222 1.61905V1.8619C12.0556 2.59048 13.7778 4.77619 13.7778 7.28571V12.1429L15.5 13.7619ZM12.0556 7.28571C12.0556 5.01905 10.1611 3.2381 7.75 3.2381C5.33889 3.2381 3.44444 5.01905 3.44444 7.28571V12.9524H12.0556V7.28571Z" fill="#666666"/>
</svg>
