<svg width="20" height="19" viewBox="0 0 20 19" fill="none" xmlns="http://www.w3.org/2000/svg">
<path fill-rule="evenodd" clip-rule="evenodd" d="M0.769231 5.99451V15.6825C0.769231 16.3516 1.04709 16.9932 1.5417 17.4663C2.0363 17.9394 2.70712 18.2051 3.40659 18.2051H16.5934C17.2929 18.2051 17.9637 17.9394 18.4583 17.4663C18.9529 16.9932 19.2308 16.3516 19.2308 15.6825V5.99451C19.2307 5.50091 19.0793 5.01817 18.7952 4.6061C18.5111 4.19402 18.1068 3.87072 17.6325 3.67624L11.0391 0.973282C10.7108 0.838652 10.3572 0.769231 10 0.769231C9.64275 0.769231 9.28923 0.838652 8.96088 0.973282L2.36747 3.67624C1.89316 3.87072 1.48892 4.19402 1.20483 4.6061C0.920742 5.01817 0.769288 5.50091 0.769231 5.99451Z" stroke="#666666" stroke-width="1.5" stroke-linecap="round" stroke-linejoin="round"/>
</svg>
