<svg width="21" height="15" viewBox="0 0 21 15" fill="none" xmlns="http://www.w3.org/2000/svg">
<path fill-rule="evenodd" clip-rule="evenodd" d="M2.09944 3.16475C0.940551 3.16475 7.68834e-06 4.10529 7.68834e-06 5.26418V9.02636C7.68834e-06 10.1852 0.940551 11.1258 2.09944 11.1258L9.84717 11.1258C9.85786 11.249 9.86906 11.3722 9.88076 11.4953L9.97146 12.4291C10.0035 12.7589 10.1147 13.0761 10.2954 13.3539C10.4762 13.6316 10.7213 13.8616 11.0099 14.0245C11.2985 14.1873 11.6221 14.2782 11.9533 14.2893C12.2845 14.3005 12.6134 14.2316 12.9123 14.0885C15.6575 12.7736 18.1428 10.9739 20.2486 8.7761L20.4149 8.60143C20.7904 8.20964 21 7.68794 21 7.14527C21 6.60259 20.7904 6.08089 20.4149 5.6891L20.2469 5.51611C18.1417 3.31788 15.657 1.51767 12.9123 0.202031C12.6134 0.0589609 12.2845 -0.00992469 11.9533 0.00122149C11.6221 0.0123677 11.2985 0.103213 11.0099 0.266056C10.7213 0.428898 10.4762 0.658935 10.2954 0.936659C10.1147 1.21438 10.0035 1.5316 9.97146 1.86142L9.88076 2.79525L9.84717 3.16475H2.09944ZM11.0145 5.68406C11.335 5.68381 11.6434 5.56137 11.8768 5.34169C12.1102 5.122 12.2511 4.8216 12.2708 4.50166C12.3027 4.0146 12.3413 3.52585 12.3883 3.03878L12.4152 2.76669C14.6077 3.89685 16.6021 5.37563 18.3205 7.14527C16.6022 8.915 14.6078 10.3938 12.4152 11.5238L12.3883 11.2518C12.3413 10.7647 12.3027 10.2776 12.2708 9.78887C12.2511 9.46894 12.1102 9.16853 11.8768 8.94884C11.6434 8.72916 11.335 8.60672 11.0145 8.60647L2.51932 8.60647V5.68406H11.0145Z" fill="#222222"/>
</svg>
